<svg xmlns="http://www.w3.org/2000/svg" viewBox="0 0 423.06 169.42"><defs><style>.cls-1{fill:#fff;}.cls-2{fill:red;}</style></defs><title>Fichier 1</title><g id="Calque_2" data-name="Calque 2"><g id="Calque_1-2" data-name="Calque 1"><path class="cls-1" d="M61.65,109.08V78.69l-6.81-6.81,6.81-6.8V36.5l-6.81-6.8H29.67v86.18H54.84Zm-10.89-4.77-2.27,2.27H40.55V76.64h7.94l2.27,2.27Zm0-39-2.27,2.27H40.55V38.77h7.94L50.76,41Z"/><path class="cls-1" d="M80,93.66H90l2.16,22.22h11.34L93,29.7H77.32L67,115.88H77.89Zm5-52.74,4.2,43.44H80.84Z"/><polygon class="cls-1" points="110.21 115.88 121.09 115.88 121.09 49.88 144.83 49.88 144.83 115.88 155.71 115.88 155.71 49.88 163.62 49.88 163.62 38.99 155.71 38.99 155.71 29.7 144.83 29.7 144.83 38.99 121.09 38.99 121.09 29.7 110.21 29.7 110.21 38.99 103.12 38.99 103.12 49.88 110.21 49.88 110.21 115.88"/><polygon class="cls-1" points="195.03 106.58 180.63 106.58 180.63 29.7 169.74 29.7 169.74 115.88 195.03 115.88 195.03 106.58"/><polygon class="cls-1" points="227.01 106.58 210.79 106.58 210.79 76.87 224.74 76.87 224.74 67.57 210.79 67.57 210.79 38.99 226.78 38.99 226.78 29.7 199.91 29.7 199.91 115.88 227.01 115.88 227.01 106.58"/><path class="cls-1" d="M322.7,36.5l-6.81-6.8H290.38v86.18h25.51l6.81-6.8Zm-10.89,67.81-2.27,2.27h-8.27V39h8.27l2.27,2.26Z"/><polygon class="cls-1" points="355.63 106.58 339.41 106.58 339.41 76.87 353.36 76.87 353.36 67.57 339.41 67.57 339.41 38.99 355.4 38.99 355.4 29.7 328.53 29.7 328.53 115.88 355.63 115.88 355.63 106.58"/><polygon class="cls-1" points="384.28 115.88 394.15 29.7 383.94 29.7 376.91 103.07 369.88 29.7 359.22 29.7 369.08 115.88 384.28 115.88"/><path class="cls-1" d="M39.57,139.56a4.85,4.85,0,0,1-1.39.86,4.24,4.24,0,0,1-1.85.43,3.55,3.55,0,0,1-2.89-1.25,4.47,4.47,0,0,1-1-2.94,4.13,4.13,0,0,1,1-2.81,3.7,3.7,0,0,1,2.93-1.17,4.37,4.37,0,0,1,1.77.41,6.65,6.65,0,0,1,1.23.62c.22.16.37.3.49.39l1.58-2.57-.2-.2a7.31,7.31,0,0,0-1.69-1.07,7.94,7.94,0,0,0-3.34-.7A7.07,7.07,0,0,0,31,131.63a6.85,6.85,0,0,0-2.09,5.11A7,7,0,0,0,36.17,144a8.49,8.49,0,0,0,3.55-.82,9,9,0,0,0,1.13-.7,4.26,4.26,0,0,0,.94-.82L40,139.13Z"/><path class="cls-1" d="M50.12,129.56a7.14,7.14,0,0,0-5.23,2.05,6.85,6.85,0,0,0-2.07,5.07,7.11,7.11,0,0,0,7.3,7.29,7.14,7.14,0,0,0,7.29-7.29,6.83,6.83,0,0,0-2.09-5.07A7.09,7.09,0,0,0,50.12,129.56Zm2.67,10.1a3.6,3.6,0,0,1-5.35,0,4.29,4.29,0,0,1-1.09-3,4,4,0,0,1,1.09-2.85,3.69,3.69,0,0,1,5.35,0,4,4,0,0,1,1.09,2.85A4.29,4.29,0,0,1,52.79,139.66Z"/><path class="cls-1" d="M69.66,129.79l-2,5.89c-.22.61-.45,1.37-.7,2.3h0l-.7-2.3-2-5.89H60.45l-1.15,14h3.43l.43-6.28a15.2,15.2,0,0,0,0-2.34h0l.78,2.34,1.46,4h2.93l1.46-4c.22-.59.47-1.37.78-2.34h0l0,.35a16.79,16.79,0,0,0,0,2l.43,6.28h3.41l-1.13-14Z"/><path class="cls-1" d="M83.13,129.79H77.34v14h3.41v-4.31h2.38a4.28,4.28,0,0,0,3.28-1.35,5,5,0,0,0,1.27-3.49,4.86,4.86,0,0,0-1.27-3.45A4.28,4.28,0,0,0,83.13,129.79Zm-.7,6.71H80.75v-3.78h1.74a1.65,1.65,0,0,1,1.71,1.87A1.7,1.7,0,0,1,82.43,136.5Z"/><polygon class="cls-1" points="95.44 128.9 97.74 125.97 94.4 125.97 92.82 128.9 95.44 128.9"/><polygon class="cls-1" points="93.12 138.18 97.37 138.18 97.37 135.25 93.12 135.25 93.12 132.72 98.44 132.72 98.44 129.79 89.7 129.79 89.7 143.74 98.71 143.74 98.71 140.81 93.12 140.81 93.12 138.18"/><polygon class="cls-1" points="99.61 132.72 103.84 132.72 103.84 143.74 107.26 143.74 107.26 132.72 111.49 132.72 111.49 129.79 99.61 129.79 99.61 132.72"/><rect class="cls-1" x="113.2" y="129.79" width="3.41" height="13.94"/><polygon class="cls-1" points="118.33 132.72 122.56 132.72 122.56 143.74 125.98 143.74 125.98 132.72 130.21 132.72 130.21 129.79 118.33 129.79 118.33 132.72"/><rect class="cls-1" x="131.92" y="129.79" width="3.41" height="13.94"/><path class="cls-1" d="M145,129.56a7.12,7.12,0,0,0-5.22,2.05,6.81,6.81,0,0,0-2.07,5.07,7.29,7.29,0,1,0,14.58,0,6.86,6.86,0,0,0-2.08-5.07A7.11,7.11,0,0,0,145,129.56Zm2.67,10.1a3.59,3.59,0,0,1-5.34,0,4.29,4.29,0,0,1-1.09-3,4,4,0,0,1,1.09-2.85,3.67,3.67,0,0,1,5.34,0,4,4,0,0,1,1.1,2.85A4.3,4.3,0,0,1,147.62,139.66Z"/><path class="cls-1" d="M162.93,136.31c0,.58.06,1.38.16,2.38h0l-.18-.39c-.23-.53-.68-1.45-1-2L158,129.79h-3.45v14H158v-6.5c0-.58-.06-1.38-.16-2.38h0l.18.39c.23.53.68,1.45,1,2l3.88,6.5h3.43v-14h-3.41Z"/><path class="cls-1" d="M187.72,136.68a6.83,6.83,0,0,0-2.09-5.07,7.66,7.66,0,0,0-10.43,0,6.81,6.81,0,0,0-2.07,5.07,7.11,7.11,0,0,0,7.29,7.29,7.22,7.22,0,0,0,4-1.15l1.42,1.35L187.8,142l-1.47-1.19A7.1,7.1,0,0,0,187.72,136.68Zm-3.9,1.79-1.39-1.34-1.91,2.16,1.43,1.25a3.34,3.34,0,0,1-1.53.31,3.45,3.45,0,0,1-2.67-1.19,4.29,4.29,0,0,1-1.09-3,4,4,0,0,1,1.09-2.85,3.69,3.69,0,0,1,5.35,0,4,4,0,0,1,1.09,2.85A4.38,4.38,0,0,1,183.82,138.47Z"/><path class="cls-1" d="M198.29,138.61a2.43,2.43,0,0,1-4.84,0v-8.82H190v8.82a5,5,0,0,0,1.6,3.88,6.78,6.78,0,0,0,8.46,0,5.08,5.08,0,0,0,1.6-3.88v-8.82h-3.41Z"/><rect class="cls-1" x="204.78" y="129.79" width="3.41" height="13.94"/><path class="cls-1" d="M225.69,139.56a4.85,4.85,0,0,1-1.39.86,4.24,4.24,0,0,1-1.85.43,3.55,3.55,0,0,1-2.89-1.25,4.47,4.47,0,0,1-1.05-2.94,4.13,4.13,0,0,1,1-2.81,3.7,3.7,0,0,1,2.93-1.17,4.37,4.37,0,0,1,1.77.41,6.65,6.65,0,0,1,1.23.62c.22.16.37.3.49.39l1.58-2.57-.2-.2a7.31,7.31,0,0,0-1.69-1.07,7.94,7.94,0,0,0-3.34-.7,7.07,7.07,0,0,0-5.22,2.07,6.85,6.85,0,0,0-2.09,5.11,7,7,0,0,0,7.31,7.23,8.49,8.49,0,0,0,3.55-.82,9,9,0,0,0,1.13-.7,4,4,0,0,0,.94-.82l-1.76-2.5Z"/><path class="cls-1" d="M233,129.79l-4.74,14h3.51l.84-2.93H237l.86,2.93h3.51l-4.74-14Zm.41,8.29.8-2.71c.17-.58.35-1.38.56-2.4h0l.57,2.4.78,2.71Z"/><path class="cls-1" d="M247.78,135.35c-1.23-.47-2.2-.94-2.2-1.56s.68-1.09,1.48-1.09a3.89,3.89,0,0,1,1.54.35,4.36,4.36,0,0,1,1.09.55,2.93,2.93,0,0,1,.45.33l1.44-2.79-.46-.39a4.76,4.76,0,0,0-1.58-.78,7.1,7.1,0,0,0-2.44-.41,5.27,5.27,0,0,0-3.53,1.19,3.84,3.84,0,0,0-1.41,3.08c0,2.14,1.56,3.22,3.14,3.94s3.14,1.11,3.14,1.95-.66,1.11-1.46,1.11a4.29,4.29,0,0,1-1.66-.39,9,9,0,0,1-1.19-.64l-.48-.41-1.8,2.59.22.2a6.41,6.41,0,0,0,1.65,1.09,7.63,7.63,0,0,0,3.22.7,5,5,0,0,0,3.59-1.25,4.11,4.11,0,0,0,1.33-3.08C251.9,137.07,249.58,136,247.78,135.35Z"/><path class="cls-1" d="M259.09,135.35c-1.23-.47-2.2-.94-2.2-1.56s.68-1.09,1.48-1.09a3.89,3.89,0,0,1,1.54.35,4.36,4.36,0,0,1,1.09.55,2.93,2.93,0,0,1,.45.33l1.44-2.79-.46-.39a4.76,4.76,0,0,0-1.58-.78,7.1,7.1,0,0,0-2.44-.41,5.31,5.31,0,0,0-3.53,1.19,3.83,3.83,0,0,0-1.4,3.08c0,2.14,1.56,3.22,3.14,3.94s3.13,1.11,3.13,1.95-.66,1.11-1.46,1.11a4.29,4.29,0,0,1-1.66-.39,8.1,8.1,0,0,1-1.18-.64l-.49-.41-1.8,2.59.22.2a6.51,6.51,0,0,0,1.66,1.09,7.58,7.58,0,0,0,3.21.7,5,5,0,0,0,3.59-1.25,4.11,4.11,0,0,0,1.33-3.08C263.21,137.07,260.89,136,259.09,135.35Z"/><polygon class="cls-1" points="268.92 138.18 273.17 138.18 273.17 135.25 268.92 135.25 268.92 132.72 274.24 132.72 274.24 129.79 265.51 129.79 265.51 143.74 274.52 143.74 274.52 140.81 268.92 140.81 268.92 138.18"/><polygon class="cls-1" points="284.85 129.79 281.44 129.79 281.44 143.74 290.55 143.74 290.55 140.81 284.85 140.81 284.85 129.79"/><polygon class="cls-1" points="295.83 138.18 300.08 138.18 300.08 135.25 295.83 135.25 295.83 132.72 301.16 132.72 301.16 129.79 292.42 129.79 292.42 143.74 301.43 143.74 301.43 140.81 295.83 140.81 295.83 138.18"/><path class="cls-1" d="M308.78,135.35c-1.23-.47-2.2-.94-2.2-1.56s.68-1.09,1.48-1.09a3.89,3.89,0,0,1,1.54.35,4.36,4.36,0,0,1,1.09.55,2.93,2.93,0,0,1,.45.33l1.44-2.79-.46-.39a4.76,4.76,0,0,0-1.58-.78,7.1,7.1,0,0,0-2.44-.41,5.27,5.27,0,0,0-3.53,1.19,3.84,3.84,0,0,0-1.41,3.08c0,2.14,1.56,3.22,3.14,3.94s3.14,1.11,3.14,1.95-.66,1.11-1.46,1.11a4.29,4.29,0,0,1-1.66-.39,9,9,0,0,1-1.19-.64l-.48-.41-1.8,2.59.22.2a6.41,6.41,0,0,0,1.65,1.09,7.63,7.63,0,0,0,3.22.7,5,5,0,0,0,3.59-1.25,4.11,4.11,0,0,0,1.33-3.08C312.9,137.07,310.58,136,308.78,135.35Z"/><path class="cls-1" d="M329.41,139.56a4.77,4.77,0,0,1-1.38.86,4.27,4.27,0,0,1-1.85.43,3.55,3.55,0,0,1-2.89-1.25,4.47,4.47,0,0,1-1.05-2.94,4.13,4.13,0,0,1,1-2.81,3.68,3.68,0,0,1,2.93-1.17,4.37,4.37,0,0,1,1.77.41,7,7,0,0,1,1.23.62l.49.39,1.58-2.57-.2-.2a7.2,7.2,0,0,0-1.7-1.07,7.89,7.89,0,0,0-3.33-.7,7.09,7.09,0,0,0-5.23,2.07,6.88,6.88,0,0,0-2.08,5.11A7,7,0,0,0,326,144a8.49,8.49,0,0,0,3.55-.82,9,9,0,0,0,1.13-.7,4.26,4.26,0,0,0,.94-.82l-1.76-2.5Z"/><path class="cls-1" d="M340,129.56a7.13,7.13,0,0,0-5.22,2.05,6.81,6.81,0,0,0-2.07,5.07,7.3,7.3,0,1,0,14.59,0,6.83,6.83,0,0,0-2.09-5.07A7.09,7.09,0,0,0,340,129.56Zm2.68,10.1a3.6,3.6,0,0,1-5.35,0,4.29,4.29,0,0,1-1.09-3,4,4,0,0,1,1.09-2.85,3.69,3.69,0,0,1,5.35,0,4,4,0,0,1,1.09,2.85A4.29,4.29,0,0,1,342.64,139.66Z"/><path class="cls-1" d="M354.53,129.79h-4.95v14h4.95a7.32,7.32,0,0,0,5.25-1.86,6.78,6.78,0,0,0,2-5.14,6.65,6.65,0,0,0-2-5.09A7.32,7.32,0,0,0,354.53,129.79Zm-.14,11H353v-8.09h1.4c2.36,0,3.81,1.42,3.81,4S356.79,140.81,354.39,140.81Z"/><polygon class="cls-1" points="367.54 138.18 371.79 138.18 371.79 135.25 367.54 135.25 367.54 132.72 372.86 132.72 372.86 129.79 364.13 129.79 364.13 143.74 373.13 143.74 373.13 140.81 367.54 140.81 367.54 138.18"/><path class="cls-1" d="M380.49,135.35c-1.23-.47-2.21-.94-2.21-1.56s.69-1.09,1.49-1.09a3.93,3.93,0,0,1,1.54.35,4.77,4.77,0,0,1,1.09.55,3.53,3.53,0,0,1,.45.33l1.44-2.79-.47-.39a4.66,4.66,0,0,0-1.58-.78,7.1,7.1,0,0,0-2.44-.41,5.27,5.27,0,0,0-3.52,1.19,3.84,3.84,0,0,0-1.41,3.08c0,2.14,1.56,3.22,3.14,3.94s3.14,1.11,3.14,1.95-.66,1.11-1.46,1.11a4.25,4.25,0,0,1-1.66-.39,9,9,0,0,1-1.19-.64l-.49-.41L374.56,142l.21.2a6.71,6.71,0,0,0,1.66,1.09,7.63,7.63,0,0,0,3.22.7,5,5,0,0,0,3.59-1.25,4.14,4.14,0,0,0,1.32-3.08C384.6,137.07,382.28,136,380.49,135.35Z"/><rect class="cls-1" x="386.4" y="140.54" width="3.2" height="3.2"/><polygon class="cls-2" points="253.48 66.67 230.8 47.39 230.8 58.61 248.26 73.47 230.8 88.33 230.8 99.55 253.48 80.27 253.48 66.67"/><polygon class="cls-2" points="283.16 88.33 265.7 73.47 283.16 58.61 283.16 47.39 260.48 66.67 260.48 80.27 283.16 99.55 283.16 88.33"/><path class="cls-2" d="M0,0V169.42H423.06V0ZM412.55,158.9h-402V10.51h402Z"/></g></g></svg>